<svg width="1324" height="180" xmlns="http://www.w3.org/2000/svg" version="1.0" preserveAspectRatio="xMidYMid meet" zoomAndPan="magnify">
 <title>Logo</title>
 <defs>
  <g id="svg_1"/>
  <clipPath id="755b10494f">
   <path id="svg_2" clip-rule="nonzero" d="m447.1875,334.78906l6.89844,0l0,7.40235l-6.89844,0l0,-7.40235zm0,0"/>
  </clipPath>
  <clipPath id="b5dbbd87d4">
   <path id="svg_3" clip-rule="nonzero" d="m400.60733,19.57049c2.27344,6.65625 0.52344,7.17969 -0.875,7.35547c-1.40234,0.17578 -4.90234,-1.05078 -4.90234,-1.40234c0,-0.34766 2.80078,-0.17578 3.67578,-0.875c0.875,-0.52344 1.05078,-2.97656 1.57422,-2.97656c0.52734,0 1.75,2.97656 1.40234,3.32812c-0.17578,0.34766 -3.15234,-0.52734 -3.32812,-1.22656c0,-0.52344 1.92578,-2.27734 2.45312,-2.10156c0.52344,0.17578 1.05078,3.15234 0.69922,3.5039c-0.52734,0.34766 -3.15234,-0.70312 -3.15234,-1.40234c0,-0.52344 2.97656,-1.75 2.97656,-1.92578c-0.17578,-0.17578 -3.85156,0.52734 -3.85156,0.875c0,0.17578 2.27734,1.22656 2.45312,1.05078c0.34766,-0.35156 -2.6289,-2.97656 -2.45312,-3.67578c0.35156,-0.52735 3.32812,-0.52735 3.32812,-0.52735"/>
  </clipPath>
  <clipPath id="4cf98c6dd1">
   <path id="svg_4" clip-rule="nonzero" d="m453,338l3.375,0l0,2.88672l-3.375,0l0,-2.88672zm0,0"/>
  </clipPath>
  <clipPath id="fb44525b8b">
   <path id="svg_5" clip-rule="nonzero" d="m403.93155,23.77362c-1.57422,2.45312 -2.97656,1.92578 -3.15234,1.40234c-0.34766,-0.52734 0,-1.92578 0.35156,-2.27734c0.52734,-0.35156 2.27734,0.17578 2.27734,0.17578"/>
  </clipPath>
  <clipPath id="d30ee395da">
   <path id="svg_6" clip-rule="nonzero" d="m448.23438,335.30859l3.58984,0l0,3.73047l-3.58984,0l0,-3.73047zm0,0"/>
  </clipPath>
  <clipPath id="7d8184bf96">
   <path id="svg_7" clip-rule="nonzero" d="m451.76172,337.4375c-2.45313,1.75 -3.5,-0.17578 -3.32813,-0.70312c0.17579,-0.52344 2.45313,-0.875 2.97657,-0.52344c0.35156,0.35156 -0.17578,2.80078 -0.69922,2.80078c-0.52344,0.17578 -2.44922,-1.39844 -2.44922,-1.92578c0,-0.69922 1.04687,-1.75 1.75,-1.75c0.52344,0 1.75,1.39844 1.75,1.39844"/>
  </clipPath>
  <clipPath id="59d31c237a">
   <path id="svg_8" clip-rule="nonzero" d="m447.39063,337.26563l3.38281,0l0,2.91796l-3.38281,0l0,-2.91796zm0,0"/>
  </clipPath>
  <clipPath id="e91a6e39bf">
   <path id="svg_9" clip-rule="nonzero" d="m450.71094,338.3125c-1.57422,2.44922 -2.97656,1.92578 -3.15235,1.39844c-0.34765,-0.52344 0,-1.92578 0.35157,-2.27344c0.52343,-0.35156 2.27734,0.17578 2.27734,0.17578"/>
  </clipPath>
  <clipPath id="0f18459045">
   <path id="svg_10" clip-rule="nonzero" d="m477.15234,329.91406l3.38282,0l0,2.91797l-3.38282,0l0,-2.91797zm0,0"/>
  </clipPath>
  <clipPath id="9470f1f5a4">
   <path id="svg_11" clip-rule="nonzero" d="m480.47266,330.95703c-1.57422,2.45313 -2.97657,1.92578 -3.14844,1.40235c-0.35156,-0.52735 0,-1.92579 0.34766,-2.27735c0.52734,-0.34765 2.27734,0.17578 2.27734,0.17578"/>
  </clipPath>
  <clipPath id="55bbf61bac">
   <path id="svg_12" clip-rule="nonzero" d="m474.85156,326.02344l10.09766,0l0,10.94922l-10.09766,0l0,-10.94922zm0,0"/>
  </clipPath>
  <clipPath id="f350cd846b">
   <path id="svg_13" clip-rule="nonzero" d="m474.87109,333.41016c0.17579,-2.10157 0.35157,-1.92578 0.35157,-2.10157c0,-0.17578 -0.17578,-0.52343 -0.17578,-0.875c0,-0.35156 0.35156,-0.52734 0.35156,-0.875c0.17187,-0.52734 0.17187,-1.22656 0.52344,-1.75c0.35156,-0.52734 0.875,-1.05078 1.40234,-1.40234c0.69922,-0.35156 1.92578,-0.35156 2.625,-0.17578c0.34766,0.17578 0.52344,0.875 1.05078,1.05078c0.34766,0.17578 1.05078,-0.34766 1.57422,-0.17578c0.52734,0 1.22656,0.35156 1.57812,0.875c0.52344,0.70312 0.875,2.45312 0.69922,2.97656c0,0.17578 -0.17578,0.35156 -0.17578,0.52735c0,0.17578 0,1.39843 -0.17578,2.10156c-0.34766,0.875 -1.39844,2.10156 -2.10156,2.44922c-0.34766,0.17578 -0.875,-0.34766 -1.22266,-0.17578c-0.35156,0.17578 -0.70312,1.05078 -1.05078,1.05078c-0.52734,0 -1.05078,-0.69922 -1.22656,-0.69922c-0.17578,0 -0.17578,0 -0.17578,0c-0.17578,0 -0.35157,-0.17578 -0.52344,-0.17578c-0.17578,0 -1.22656,0 -1.57813,-0.34766c-0.69921,-0.52734 -1.75,-2.27734 -1.75,-2.27734"/>
  </clipPath>
  <clipPath id="8b1ebf10c0">
   <path id="svg_14" clip-rule="nonzero" d="m502.28906,335.79297l8.98047,0l0,10.57812l-8.98047,0l0,-10.57812zm0,0"/>
  </clipPath>
  <clipPath id="b199939f65">
   <path id="svg_15" clip-rule="nonzero" d="m502.35938,340.9375c0.875,-2.80078 1.22656,-2.80078 1.39843,-3.15234c0.35157,-0.34766 0.70313,-1.22266 1.05078,-1.39844c0.52735,-0.35156 1.40235,-0.17578 1.40235,-0.17578c0.17578,-0.17578 0.17578,-0.17578 0.17578,-0.17578c0.34766,0 1.05078,-0.17578 1.39844,-0.17578c0.69922,0.17578 1.75,0.875 1.92578,1.05078c0,0.17578 0,0.35156 0,0.35156c0.17578,0.17578 0.35156,0.17578 0.35156,0.17578c0.17578,0.34766 0,0.875 0.17578,1.22266c0.17188,0.35156 0.52344,0.52734 0.69922,1.05078c0.17578,0.52734 0.35156,1.92578 0.17578,2.80078c-0.17578,0.70312 -1.05078,1.75391 -1.57812,2.10156c-0.52344,0.35156 -1.05078,0 -1.39844,0.17578c-0.52734,0.17578 -0.69922,1.05078 -1.22656,1.22657c-0.52344,0.35156 -1.39844,0.35156 -1.92578,0.17578c-0.52344,-0.17578 -1.22657,-0.70313 -1.39844,-1.22657c-0.35156,-0.52734 -0.52735,-1.40234 -0.52735,-1.75c0,-0.35156 0.17579,-0.52734 0.17579,-0.70312c0,-0.34766 -0.875,-1.57422 -0.875,-1.57422"/>
  </clipPath>
  <clipPath id="617c29f8cb">
   <path id="svg_16" clip-rule="nonzero" d="m447.72656,336.37891l8.2461,0l0,7.14843l-8.2461,0l0,-7.14843zm0,0"/>
  </clipPath>
  <clipPath id="3ca0436ec3">
   <path id="svg_17" clip-rule="nonzero" d="m455.96484,339.01172c-3.67968,5.77734 -7.17968,4.72656 -7.8789,3.5c-0.70313,-1.22266 -0.17578,-4.72656 1.05078,-5.77734c1.05078,-0.875 5.77734,0.35156 5.77734,0.35156"/>
  </clipPath>
  <clipPath id="c55cd65142">
   <path id="svg_18" clip-rule="nonzero" d="m471.82031,357.04297l18.54688,0l0,12.23047l-18.54688,0l0,-12.23047zm0,0"/>
  </clipPath>
  <clipPath id="3f1a4488cf">
   <path id="svg_19" clip-rule="nonzero" d="m478.02344,357.21875c12.60547,7.00391 11.90625,9.80469 10.85547,10.67969c-1.05078,1.05078 -4.02735,1.40234 -5.42969,0.70312c-1.05078,-0.52734 -2.10156,-2.27734 -2.10156,-3.5039c-0.17188,-1.22657 0.70312,-3.15235 1.7539,-3.85157c0.875,-0.69921 2.97657,-1.22656 4.02344,-0.69921c1.40234,0.52343 3.15234,2.97656 3.15234,4.375c0,1.40234 -1.92578,3.67968 -3.5,4.20312c-2.10156,0.69922 -6.30468,-1.40234 -8.7539,-2.27734c-1.75,-0.69922 -3.32813,-1.05078 -4.37891,-1.92578c-0.875,-1.05079 -1.75,-2.625 -1.75,-3.85157c0,-1.22265 1.05078,-2.80078 1.92578,-3.5c1.05078,-0.69922 4.20313,-0.35156 4.20313,-0.35156"/>
  </clipPath>
  <clipPath id="d12b5b36f8">
   <path id="svg_20" clip-rule="nonzero" d="m473.16406,362.43359l24.19532,0l0,10.26563l-24.19532,0l0,-10.26563zm0,0"/>
  </clipPath>
  <clipPath id="3facc428f5">
   <path id="svg_21" clip-rule="nonzero" d="m478.19922,362.47266c17.85547,2.10156 19.08203,4.20312 19.08203,5.77734c0,1.22656 -1.05078,2.97656 -2.10156,3.5c-1.39844,0.70313 -4.55078,0.52734 -5.60156,-0.52344c-1.05079,-1.05078 -1.40235,-4.20312 -0.875,-5.42968c0.52343,-1.22266 2.27343,-2.44922 3.67578,-2.44922c1.40234,0 4.20312,1.57422 4.72656,2.97656c0.52734,1.22656 0,4.20312 -1.57422,5.25391c-2.80078,2.09765 -14.88281,0.52343 -18.20703,-0.35157c-1.40234,-0.17578 -2.10156,-0.52734 -2.80469,-1.22656c-0.875,-1.05078 -1.57422,-2.97656 -1.22265,-4.02734c0.52343,-1.39844 4.90234,-3.5 4.90234,-3.5"/>
  </clipPath>
  <clipPath id="94c7e16b4d">
   <path id="svg_22" clip-rule="nonzero" d="m476.08984,348.28516l8.24219,0l0,7.14843l-8.24219,0l0,-7.14843zm0,0"/>
  </clipPath>
  <clipPath id="6454f9048f">
   <path id="svg_23" clip-rule="nonzero" d="m484.32422,350.91797c-3.67578,5.77734 -7.17578,4.72656 -7.87891,3.5c-0.69922,-1.22656 -0.17187,-4.72656 1.05078,-5.77734c1.05079,-0.875 5.77735,0.35156 5.77735,0.35156"/>
  </clipPath>
  <clipPath id="a774f95ff8">
   <path id="svg_24" clip-rule="nonzero" d="m479.94141,353.1875l8.24218,0l0,7.14844l-8.24218,0l0,-7.14844zm0,0"/>
  </clipPath>
  <clipPath id="8134d32375">
   <path id="svg_25" clip-rule="nonzero" d="m488.17578,355.82031c-3.67578,5.77735 -7.17578,4.72657 -7.8789,3.5c-0.69922,-1.22656 -0.17188,-4.72656 1.05078,-5.77734c1.05078,-0.875 5.77734,0.35156 5.77734,0.35156"/>
  </clipPath>
  <clipPath id="8d8ca3a1ff">
   <path id="svg_26" clip-rule="nonzero" d="m448.07813,336.37891l8.24218,0l0,7.14843l-8.24218,0l0,-7.14843zm0,0"/>
  </clipPath>
  <clipPath id="8b33047e1d">
   <path id="svg_27" clip-rule="nonzero" d="m456.3125,339.01172c-3.67578,5.77734 -7.17578,4.72656 -7.87891,3.5c-0.69921,-1.22266 -0.17187,-4.72656 1.05079,-5.77734c1.05078,-0.875 5.77734,0.35156 5.77734,0.35156"/>
  </clipPath>
  <clipPath id="a2e74cb672">
   <path id="svg_28" clip-rule="nonzero" d="m448.01563,335.87891l8.89062,0l0,9.12109l-8.89062,0l0,-9.12109zm0,0"/>
  </clipPath>
  <clipPath id="c527197c10">
   <path id="svg_29" clip-rule="nonzero" d="m455.61328,337.4375c1.05078,5.25 -0.17578,6.65234 -1.40234,7.17578c-1.05078,0.52735 -2.97656,0.35156 -4.02344,-0.34765c-1.05078,-0.52735 -2.10156,-2.27735 -2.10156,-3.50391c0,-1.22266 0.875,-2.97656 1.92578,-3.67578c0.875,-0.69922 2.80078,-1.05078 4.02734,-0.52344c1.04688,0.34766 2.44922,1.75 2.80078,2.97656c0.17579,1.22266 -0.35156,3.14844 -1.05078,4.02344c-0.52734,0.70313 -1.57812,1.22656 -2.45312,1.40234c-1.05078,0 -3.14844,-0.35156 -3.85156,-1.22656c-1.05079,-1.22656 -1.57422,-4.55078 -1.05079,-5.77734c0.35157,-1.05078 1.40235,-1.75 2.45313,-1.92578c1.05078,-0.34766 4.02734,0.69922 4.02734,0.69922"/>
  </clipPath>
  <clipPath id="d4aee2bf19">
   <path id="svg_30" clip-rule="nonzero" d="m448.42578,337.07813l8.2461,0l0,7.15234l-8.2461,0l0,-7.15234zm0,0"/>
  </clipPath>
  <clipPath id="f1f8cecc23">
   <path id="svg_31" clip-rule="nonzero" d="m456.66406,339.71094c-3.67578,5.77734 -7.17968,4.72656 -7.8789,3.5039c-0.69922,-1.22656 -0.17578,-4.72656 1.05078,-5.77734c1.05078,-0.875 5.77734,0.34766 5.77734,0.34766"/>
  </clipPath>
  <clipPath id="3aec257da1">
   <path id="svg_32" clip-rule="nonzero" d="m447.02734,335l8.24219,0l0,7.12891l-8.24219,0l0,-7.12891zm0,0"/>
  </clipPath>
  <clipPath id="7d3ccbe029">
   <path id="svg_33" clip-rule="nonzero" d="m455.26172,337.61328c-3.67578,5.77735 -7.17578,4.72656 -7.87891,3.5c-0.69922,-1.22656 -0.17187,-4.72656 1.05078,-5.77734c1.05079,-0.875 5.77735,0.35156 5.77735,0.35156"/>
  </clipPath>
  <clipPath id="1d54c5ee14">
   <path id="svg_34" clip-rule="nonzero" d="m446.32031,334.70703l8.77735,0l0,9.29297l-8.77735,0l0,-9.29297zm0,0"/>
  </clipPath>
  <clipPath id="ea3c96e237">
   <path id="svg_35" clip-rule="nonzero" d="m455.08594,339.53906c-2.80078,4.375 -4.89844,4.55078 -5.94922,4.02344c-1.05078,-0.34766 -2.45313,-1.92578 -2.62891,-3.14844c-0.34765,-1.05078 0.17578,-2.97656 1.05078,-3.85156c0.875,-0.875 2.80079,-1.57812 3.85157,-1.40234c1.22656,0.17578 2.80078,1.40234 3.32812,2.625c0.52344,1.05078 0.34766,2.97656 -0.17578,4.02734c-0.69922,1.05078 -2.44922,1.92578 -3.5,2.10156c-1.05078,0.17578 -2.10156,-0.17578 -2.80078,-0.69922c-0.87891,-0.70312 -1.92578,-2.45312 -1.92578,-3.67578c0.17187,-1.40234 2.09765,-4.20312 3.5,-4.73047c1.22656,-0.34765 3.15234,0.52735 4.02734,1.22657c0.69922,0.69922 1.22266,2.80078 1.22266,2.80078"/>
  </clipPath>
  <clipPath id="a35a10bcd7">
   <path id="svg_36" clip-rule="nonzero" d="m446.32031,335.75781l8.77735,0l0,9.31641l-8.77735,0l0,-9.31641zm0,0"/>
  </clipPath>
  <clipPath id="b91d91a398">
   <path id="svg_37" clip-rule="nonzero" d="m455.08594,340.58594c-2.80078,4.3789 -4.89844,4.55469 -5.94922,4.02734c-1.05078,-0.34765 -2.45313,-1.92578 -2.62891,-3.14844c-0.34765,-1.05078 0.17578,-2.97656 1.05078,-3.85156c0.875,-0.8789 2.80079,-1.57812 3.85157,-1.40234c1.22656,0.17578 2.80078,1.40234 3.32812,2.625c0.52344,1.05078 0.34766,2.97656 -0.17578,4.02734c-0.69922,1.05078 -2.44922,1.92578 -3.5,2.10156c-1.05078,0.17579 -2.10156,-0.17578 -2.80078,-0.69921c-0.87891,-0.70313 -1.92578,-2.45313 -1.92578,-3.67969c0.17187,-1.39844 2.09765,-4.19922 3.5,-4.72656c1.22656,-0.34766 3.15234,0.52734 4.02734,1.22656c0.69922,0.69922 1.22266,2.80078 1.22266,2.80078"/>
  </clipPath>
  <clipPath id="1bae421e51">
   <path id="svg_38" clip-rule="nonzero" d="m476.08984,327.625l8.24219,0l0,7.14844l-8.24219,0l0,-7.14844zm0,0"/>
  </clipPath>
  <clipPath id="33ad7a1a77">
   <path id="svg_39" clip-rule="nonzero" d="m484.32422,330.25781c-3.67578,5.77735 -7.17578,4.72657 -7.87891,3.5c-0.69922,-1.22265 -0.17187,-4.72656 1.05078,-5.77734c1.05079,-0.875 5.77735,0.35156 5.77735,0.35156"/>
  </clipPath>
  <clipPath id="Infinity">
   <path id="svg_40" clip-rule="nonzero" d="m475.03906,328l8.24219,0l0,7.125l-8.24219,0l0,-7.125zm0,0"/>
  </clipPath>
  <clipPath id="88bbc66097">
   <path id="svg_41" clip-rule="nonzero" d="m483.27344,330.60938c-3.67578,5.77734 -7.17578,4.72656 -7.875,3.5c-0.70313,-1.22657 -0.17578,-4.72657 1.04687,-5.77735c1.05078,-0.875 5.78125,0.35156 5.78125,0.35156"/>
  </clipPath>
  <clipPath id="0648096bd8">
   <path id="svg_42" clip-rule="nonzero" d="m502.35156,336.73047l8.24219,0l0,7.14844l-8.24219,0l0,-7.14844zm0,0"/>
  </clipPath>
  <clipPath id="ba8004c14c">
   <path id="svg_43" clip-rule="nonzero" d="m510.58594,339.36328c-3.67578,5.77735 -7.17578,4.72656 -7.87891,3.5c-0.69922,-1.22656 -0.17187,-4.72656 1.05078,-5.77734c1.05078,-0.875 5.77735,0.35156 5.77735,0.35156"/>
  </clipPath>
  <clipPath id="e75904a16d">
   <path id="svg_44" clip-rule="nonzero" d="m502.69922,336.37891l8.24609,0l0,7.14843l-8.24609,0l0,-7.14843zm0,0"/>
  </clipPath>
  <clipPath id="50204ab62d">
   <path id="svg_45" clip-rule="nonzero" d="m510.9375,339.01172c-3.67578,5.77734 -7.17969,4.72656 -7.87891,3.5c-0.69921,-1.22266 -0.17578,-4.72656 1.05079,-5.77734c1.05078,-0.875 5.77734,0.35156 5.77734,0.35156"/>
  </clipPath>
  <clipPath id="cbfca59db5">
   <path id="svg_46" clip-rule="nonzero" d="m503.40234,336.37891l8.24219,0l0,7.14843l-8.24219,0l0,-7.14843zm0,0"/>
  </clipPath>
  <clipPath id="66c3223cac">
   <path id="svg_47" clip-rule="nonzero" d="m511.63672,339.01172c-3.67578,5.77734 -7.17578,4.72656 -7.87891,3.5c-0.69922,-1.22266 -0.17578,-4.72656 1.05078,-5.77734c1.05079,-0.875 5.77735,0.35156 5.77735,0.35156"/>
  </clipPath>
  <clipPath id="9473413caf">
   <path id="svg_48" clip-rule="nonzero" d="m497.09766,351.08594l8.24609,0l0,7.14844l-8.24609,0l0,-7.14844zm0,0"/>
  </clipPath>
  <clipPath id="1a4e8b60e7">
   <path id="svg_49" clip-rule="nonzero" d="m505.33594,353.71875c-3.67969,5.77734 -7.17969,4.72656 -7.87891,3.5c-0.69922,-1.22266 -0.17578,-4.72656 1.05078,-5.77734c1.05078,-0.875 5.77735,0.35156 5.77735,0.35156"/>
  </clipPath>
  <clipPath id="1745df404a">
   <path id="svg_50" clip-rule="nonzero" d="m468.90625,354.35547l34.20703,0l0,17.28516l-34.20703,0l0,-17.28516zm0,0"/>
  </clipPath>
  <clipPath id="ed8815ff1f">
   <path id="svg_51" clip-rule="nonzero" d="m502.88281,361.24609c-6.82812,7.52735 -11.02734,8.40235 -15.05468,9.10547c-4.72657,0.875 -12.95704,1.92578 -15.9336,0.69922c-1.57422,-0.875 -2.44922,-2.44922 -2.80078,-3.67578c-0.17578,-0.875 -0.17578,-2.10156 0.52734,-2.97656c0.52344,-1.05078 2.27344,-2.45313 3.67579,-2.625c1.22265,-0.17578 3.32421,0.52344 4.19921,1.57422c0.875,0.875 1.57813,2.97656 1.05079,4.375c-0.52344,1.40234 -2.97657,3.67968 -4.55079,3.67968c-1.57421,0 -4.20312,-2.10156 -4.72656,-3.5039c-0.52734,-0.875 -0.35156,-2.10156 0,-2.97656c0.52344,-1.22266 1.75,-2.44922 3.5,-3.14844c3.15235,-1.40235 11.38281,0.17187 15.9336,-1.40235c4.02734,-1.22656 7.70312,-5.95312 10.15234,-5.95312c1.57812,-0.17578 3.15234,0.69922 3.85156,1.75c0.70313,1.05078 0.17578,5.07812 0.17578,5.07812"/>
  </clipPath>
  <clipPath id="f00dd8c0a1">
   <path id="svg_52" clip-rule="nonzero" d="m461.84766,360.30469l41.49218,0l0,15.60156l-41.49218,0l0,-15.60156zm0,0"/>
  </clipPath>
  <clipPath id="22786bc30d">
   <path id="svg_53" clip-rule="nonzero" d="m503.05859,366.67578c-8.7539,9.45313 -9.80468,9.10156 -11.73046,9.10156c-3.67579,0.17579 -10.85547,0.17579 -15.92969,-0.52343c-4.37891,-0.52735 -10.85547,-0.875 -12.60547,-2.80078c-1.05078,-1.22657 -1.05078,-3.32813 -0.52734,-4.55469c0.52734,-1.22266 2.27734,-2.80078 3.5,-2.97656c1.40234,-0.34766 3.5039,0.17578 4.55468,1.22656c0.875,0.875 1.75,2.97656 1.39844,4.20312c-0.34766,1.57422 -2.80078,3.85157 -4.19922,4.19922c-1.40234,0.35156 -3.5039,-0.69922 -4.3789,-1.75c-0.69922,-0.69922 -1.22657,-1.75 -1.22657,-2.80078c0.17578,-1.57422 1.92578,-4.55078 3.32813,-5.07812c1.57422,-0.34766 3.15234,1.57812 5.60156,1.92578c4.55469,0.70312 14.35547,1.05078 19.43359,-0.52344c3.85157,-1.22656 6.82813,-5.95313 9.28125,-5.95313c1.39844,0 2.80079,1.22657 3.5,2.27735c0.52344,1.05078 0,4.02734 0,4.02734"/>
  </clipPath>
  <clipPath id="fd31a6ccb1">
   <path id="svg_54" clip-rule="nonzero" d="m491.58984,366.58203l11.91407,0l0,9.28125l-11.91407,0l0,-9.28125zm0,0"/>
  </clipPath>
  <clipPath id="36758529a0">
   <path id="svg_55" clip-rule="nonzero" d="m496.40625,366.67578c5.60156,1.39844 6.82813,2.80078 7.00391,4.02344c0.17187,1.22656 -0.35157,3.15234 -1.22657,3.85156c-1.22656,0.87891 -4.20312,1.22656 -5.42578,0.70313c-1.05078,-0.52735 -2.10156,-2.45313 -2.10156,-3.67578c0,-1.22657 0.875,-2.97657 1.75,-3.67969c1.05078,-0.69922 2.97656,-1.05078 4.02734,-0.69922c1.22266,0.35156 2.625,1.92578 2.97657,2.97656c0.17187,1.22656 -0.17578,3.15235 -0.875,4.02735c-0.87891,1.05078 -2.62891,1.57421 -3.85157,1.57421c-1.57812,0.17579 -4.02734,-0.34765 -5.2539,-1.05078c-0.875,-0.69922 -1.57422,-1.57422 -1.75,-2.625c-0.17578,-1.05078 0.17578,-2.97656 0.875,-3.85156c0.875,-1.05078 3.85156,-1.57422 3.85156,-1.57422"/>
  </clipPath>
  <clipPath id="a9ae6478eb">
   <path id="svg_56" clip-rule="nonzero" d="m453.83594,346.16406l36.97265,0l0,29.47266l-36.97265,0l0,-29.47266zm0,0"/>
  </clipPath>
  <clipPath id="989d1d05ae">
   <path id="svg_57" clip-rule="nonzero" d="m473.12109,375.25391c-9.45312,1.22265 -13.30468,-1.40235 -15.40625,-4.20313c-2.45312,-3.32812 -4.02734,-10.5039 -3.67578,-13.83203c0,-2.10156 0.69922,-4.02734 1.92578,-5.07422c1.57422,-1.05078 4.90235,-1.7539 7,-0.8789c2.62891,1.05078 4.90235,8.23046 7.00391,7.8789c2.10156,-0.17187 3.15234,-8.40234 5.07813,-10.5039c1.39843,-1.22657 2.80078,-2.10157 4.20312,-2.27344c1.39844,-0.17578 3.32422,0.34765 4.55078,1.22265c1.39844,1.05079 2.44922,2.62891 3.5,4.37891c1.22656,2.10156 3.67578,5.77734 3.32813,8.05078c-0.17578,1.92578 -2.45313,4.37891 -4.02735,4.90235c-1.22656,0.52734 -3.5,-0.17188 -4.72656,-1.22266c-1.05078,-0.875 -1.75,-3.15234 -1.57812,-4.55469c0.17578,-1.39844 1.57812,-3.32422 2.80468,-4.02734c1.05078,-0.52344 2.27344,-0.69922 3.32422,-0.34766c1.22656,0.34766 3.32813,1.57422 3.85156,2.97656c0.52735,1.57422 -0.34765,5.07813 -1.57421,6.125c-1.40235,1.05079 -5.07813,1.22657 -6.30469,0.17579c-1.22266,-0.875 -0.52344,-5.77735 -1.39844,-5.95313c-1.40234,-0.17187 -3.50391,8.05469 -6.30469,9.62891c-2.625,1.22656 -6.82812,1.05078 -9.27734,-0.17188c-2.625,-1.22656 -6.47656,-6.48047 -5.95313,-7.8789c0.35157,-0.875 3.15235,-1.75 4.375,-1.05079c1.75391,0.875 1.75391,7.52735 3.85157,9.10157c1.7539,1.22656 5.78125,-0.69922 7.0039,0.35156c1.05078,0.69922 1.40235,2.80078 1.05078,4.02734c-0.17578,1.22657 -2.625,3.15235 -2.625,3.15235"/>
  </clipPath>
  <clipPath id="a4649fa4f6">
   <path id="svg_58" clip-rule="nonzero" d="m455.00391,364.86328l15.5664,0l0,11.13672l-15.5664,0l0,-11.13672zm0,0"/>
  </clipPath>
  <clipPath id="510512625d">
   <path id="svg_59" clip-rule="nonzero" d="m466.99219,373.67578c-9.27735,2.27735 -11.37891,0.52735 -11.73047,-0.875c-0.52344,-1.05078 0,-3.14844 0.875,-4.02734c1.05078,-0.875 4.02734,-1.57422 5.42969,-1.05078c1.05078,0.52734 2.27343,2.27734 2.44922,3.5039c0,1.05078 -0.52344,3.15235 -1.57422,3.85157c-1.05078,0.875 -4.02735,1.22656 -5.25391,0.52343c-1.22266,-0.875 -2.44922,-3.67578 -1.92578,-5.07422c0.875,-2.27734 7.17969,-5.60546 9.98047,-5.60546c2.10156,0 4.55078,1.7539 5.07812,2.97656c0.52344,1.22656 0,3.15234 -0.52734,4.02734c-0.69922,0.875 -2.80078,1.75 -2.80078,1.75"/>
  </clipPath>
  <clipPath id="ef02e808fd">
   <path id="svg_60" clip-rule="nonzero" d="m466.71094,367.26953l13.4375,0l0,9.31641l-13.4375,0l0,-9.31641zm0,0"/>
  </clipPath>
  <clipPath id="2028abe095">
   <path id="svg_61" clip-rule="nonzero" d="m471.01953,367.375c7.35156,0.69922 8.57813,2.10156 8.92969,3.15234c0.34766,1.22266 0,3.32422 -0.875,4.19922c-1.05078,0.875 -4.02734,1.57813 -5.25391,1.05078c-1.22656,-0.34765 -2.44922,-2.10156 -2.625,-3.32421c-0.17578,-1.22657 0.52344,-3.15235 1.39844,-3.85157c0.87891,-0.8789 2.80469,-1.40234 4.02734,-1.22656c1.22657,0.34766 2.62891,1.57422 3.15235,2.80078c0.35156,1.05078 0.17578,3.15235 -0.52344,4.02735c-0.70312,1.05078 -2.27734,1.75 -3.67969,1.92578c-1.57422,0.52343 -4.02343,0.52343 -5.60156,0c-1.22656,-0.52735 -2.625,-1.57813 -2.97656,-2.80078c-0.52344,-1.05079 -0.17578,-3.15235 0.52734,-4.02735c0.52344,-1.05078 3.5,-1.92578 3.5,-1.92578"/>
  </clipPath>
  <clipPath id="555078dd2c">
   <path id="svg_62" clip-rule="nonzero" d="m476.70703,338.12891l9.55078,0l0,23.74218l-9.55078,0l0,-23.74218zm0,0"/>
  </clipPath>
  <clipPath id="9e896e1b9e">
   <path id="svg_63" clip-rule="nonzero" d="m476.79688,357.04297c1.05078,-17.50391 2.27734,-18.55469 3.5,-18.73047c1.40234,-0.35156 4.3789,0.875 5.2539,1.92578c0.69922,1.05078 0.875,3.32422 0.17578,4.375c-0.69922,1.40235 -3.5,2.80078 -4.90234,2.62891c-1.22656,0 -2.97656,-1.40235 -3.5,-2.62891c-0.52734,-1.39844 0.17187,-4.375 1.22266,-5.42578c0.875,-0.875 3.15234,-1.22656 4.20312,-0.875c1.05078,0.17578 1.92578,0.52344 2.44922,1.57422c1.40234,2.45312 0.87891,11.37891 0.70312,15.05859c-0.17578,2.09766 -0.17578,3.67578 -0.875,4.90235c-0.52734,0.875 -1.57812,1.57422 -2.45312,1.92578c-1.22656,0.17187 -3.15234,-0.17578 -4.20313,-0.875c-0.875,-0.70313 -1.57421,-3.85547 -1.57421,-3.85547"/>
  </clipPath>
  <clipPath id="d9ddac1d3b">
   <path id="svg_64" clip-rule="nonzero" d="m472.91797,341.60938l12.30859,0l0,21.33984l-12.30859,0l0,-21.33984zm0,0"/>
  </clipPath>
  <clipPath id="7077f9d0b9">
   <path id="svg_65" clip-rule="nonzero" d="m472.94531,357.39453c6.12891,-15.92969 8.92969,-15.75781 10.15625,-15.05469c1.05078,0.69922 2.09766,2.625 2.09766,3.85157c-0.17188,1.39843 -2.09766,4.02734 -3.5,4.375c-1.22656,0.52734 -3.15234,0 -4.20313,-0.875c-1.05078,-1.05078 -1.57421,-4.02735 -1.22265,-5.42578c0.52344,-1.22657 2.27344,-2.45313 3.5,-2.62891c1.22656,-0.17188 3.15234,0.52734 4.02734,1.40234c0.875,0.875 1.22656,2.27735 1.22656,4.20313c-0.17578,3.32422 -2.6289,12.95312 -5.07812,14.8789c-1.40234,1.05079 -3.85156,0.875 -5.07813,0c-1.22656,-0.69921 -1.92578,-4.72656 -1.92578,-4.72656"/>
  </clipPath>
  <clipPath id="7a944fc14b">
   <path id="svg_66" clip-rule="nonzero" d="m468.41797,341.25l15.41797,0l0,21.12891l-15.41797,0l0,-21.12891zm0,0"/>
  </clipPath>
  <clipPath id="3e45fee1d3">
   <path id="svg_67" clip-rule="nonzero" d="m469.09375,355.11719c8.05469,-13.48047 10.50391,-14.17969 11.73047,-13.48047c1.40234,0.52734 2.97656,3.32812 2.97656,4.73047c-0.17578,1.39844 -1.40234,3.14844 -2.625,3.67578c-1.22656,0.52344 -4.3789,0 -5.42969,-1.05078c-1.05078,-0.875 -1.57421,-2.97656 -1.05078,-4.20313c0.35157,-1.39843 2.80078,-3.5 4.20313,-3.5c1.57422,-0.17578 4.20312,1.39844 4.55078,3.14844c0.875,2.80469 -3.67578,10.85547 -5.60156,13.83203c-0.875,1.75 -1.75,2.80078 -2.97657,3.50391c-0.875,0.52344 -2.10156,0.69922 -3.15234,0.34765c-1.05078,-0.34765 -2.625,-1.57421 -3.14844,-2.80078c-0.35156,-1.22656 0.52344,-4.20312 0.52344,-4.20312"/>
  </clipPath>
  <clipPath id="1e4aae49df">
   <path id="svg_68" clip-rule="nonzero" d="m493.88672,345.73438l13.23047,0l0,20.26562l-13.23047,0l0,-20.26562zm0,0"/>
  </clipPath>
  <clipPath id="223d32d709">
   <path id="svg_69" clip-rule="nonzero" d="m493.95313,360.01953c7.53125,-14.35547 9.28125,-14.53125 10.50781,-13.82812c1.22265,0.69922 2.80078,3.32422 2.625,4.90234c0,1.22266 -1.22656,2.80078 -2.45313,3.5c-1.05078,0.52344 -3.14843,0.52344 -4.375,-0.17578c-1.05078,-0.52344 -2.27734,-2.27344 -2.27734,-3.67578c0,-1.40235 1.75,-4.02735 2.97656,-4.72656c1.22656,-0.52735 3.32813,-0.17579 4.37891,0.69921c1.05078,0.875 1.75,3.15235 1.57422,5.25391c-0.35157,3.5 -4.20313,12.25391 -6.82813,13.65625c-1.57422,0.69922 -4.02734,0.17188 -5.07812,-0.70312c-1.05078,-1.05079 -1.05078,-4.90235 -1.05078,-4.90235"/>
  </clipPath>
  <clipPath id="519ba6ae59">
   <path id="svg_70" clip-rule="nonzero" d="m453,348.28516l8.22266,0l0,7.14843l-8.22266,0l0,-7.14843zm0,0"/>
  </clipPath>
  <clipPath id="55f0a5c565">
   <path id="svg_71" clip-rule="nonzero" d="m461.21484,350.91797c-3.67578,5.77734 -7.17578,4.72656 -7.8789,3.5c-0.69922,-1.22656 -0.17578,-4.72656 1.05078,-5.77734c1.05078,-0.875 5.77734,0.35156 5.77734,0.35156"/>
  </clipPath>
 </defs>
 <g>
  <title>Layer 1</title>
  <path id="svg_72" stroke-miterlimit="4" stroke-width="7.66666" stroke="#000000" d="m13.72842,157.38299l0,-81.69531l81.69531,0l0,11.67188l-58.35547,0l0,23.33984l46.68359,0l0,11.67186l-46.68359,0l0,35.01172l-23.33984,0zm128.37889,-70.02343l0,-11.67188l23.33984,0l0,11.67188l-23.33984,0zm-23.34375,70.02343l0,-11.66796l23.34375,0l0,-35.01563l-11.67188,0l0,-11.66798l35.01172,0l0,46.6836l23.34375,0l0,11.66796l-70.02733,0zm93.36327,0l0,-11.66796l-11.66796,0l0,-35.01563l11.66796,0l0,-11.66798l70.02735,0l0,11.66798l-58.35547,0l0,35.01563l58.35547,0l0,11.66796l-70.02735,0zm81.69531,0l0,-81.69531l23.33984,0l0,23.34375l46.68749,0l0,11.66798l11.66798,0l0,46.68359l-23.33984,0l0,-46.68359l-35.01563,0l0,46.68359l-23.33984,0zm0,0" fill="none"/>
  <path id="svg_73" stroke-miterlimit="4" stroke-width="7.66666" stroke="#000000" d="m387.18542,157.38299l0,-58.35156l11.67188,0l0,-11.67186l11.67186,0l0,-11.67188l35.01172,0l0,11.67188l11.67188,0l0,11.67186l11.67186,0l0,58.35156l-23.34375,0l0,-23.33984l-35.01172,0l0,23.33984l-23.34375,0zm23.34375,-35.01172l35.01172,0l0,-23.33984l-11.66796,0l0,-11.67186l-11.67188,0l0,11.67186l-11.67188,0l0,23.33984zm81.69531,35.01172l0,-11.66796l-11.67186,0l0,-46.6836l23.33984,0l0,46.6836l35.01563,0l0,-46.6836l23.33984,0l0,58.35156l-70.02344,0zm116.70703,0l0,-46.68359l-23.34375,0l0,-11.66798l23.34375,0l0,-23.34375l23.33984,0l0,23.34375l23.34375,0l0,11.66798l-23.34375,0l0,46.68359l-23.33984,0zm70.01952,0l0,-11.66796l-11.66796,0l0,-35.01563l11.66796,0l0,-11.66798l58.35547,0l0,11.66798l11.67186,0l0,35.01563l-11.67186,0l0,11.66796l-58.35547,0zm11.67188,-11.66796l35.01561,0l0,-35.01563l-35.01561,0l0,35.01563zm70.02343,11.66796l0,-58.35156l70.02733,0l0,11.66798l11.66798,0l0,46.68359l-23.33984,0l0,-46.68359l-11.67188,0l0,46.68359l-23.33984,0l0,-46.68359l-11.67186,0l0,46.68359l-11.67188,0zm151.71874,-70.02343l-11.67186,0l0,-11.67188l11.67186,0l0,11.67188zm23.34375,23.33984l0,46.68359l-70.02733,0l0,-11.66796l-11.67188,0l0,-11.67188l11.67188,0l0,-11.67188l46.68359,0l0,-11.67186l-46.68359,0l0,-11.66798l23.34375,0l0,-11.67186l11.66798,0l0,11.67186l23.34375,0l0,11.66798l11.67186,0zm-23.34375,23.34375l-35.0117,0l0,11.67188l35.0117,0l0,-11.67188zm70.02343,23.33984l0,-46.68359l-23.33984,0l0,-11.66798l23.33984,0l0,-23.34375l23.34376,0l0,23.34375l23.33984,0l0,11.66798l-23.33984,0l0,46.68359l-23.34376,0zm93.36329,-70.02343l0,-11.67188l23.34375,0l0,11.67188l-23.34375,0zm-23.33984,70.02343l0,-11.66796l23.33984,0l0,-35.01563l-11.66798,0l0,-11.66798l35.01172,0l0,46.6836l23.34375,0l0,11.66796l-70.02733,0zm93.36327,0l0,-11.66796l-11.67188,0l0,-35.01563l11.67188,0l0,-11.66798l70.02735,0l0,11.66798l-58.35547,0l0,35.01563l58.35547,0l0,11.66796l-70.02735,0zm93.36719,0l0,-11.66796l-11.67188,0l0,-11.67188l11.67188,0l0,-11.67188l46.68359,0l0,-11.67186l-46.68359,0l0,-11.66798l58.35545,0l0,11.66798l11.66798,0l0,46.68359l-70.02343,0zm11.66796,-11.66796l35.01563,0l0,-11.67188l-35.01563,0l0,11.67188zm0,0" fill="none"/>
  <g id="svg_74" fill="#ffffff">
   <g id="svg_75">
    <g id="svg_76">
     <path id="svg_77" d="m13.72761,157.38385l0,-81.70312l81.70313,0l0,11.67187l-58.35938,0l0,23.34375l46.6875,0l0,11.67188l-46.6875,0l0,35.01562l-23.34375,0zm0,0"/>
    </g>
   </g>
  </g>
  <g id="svg_78" fill="#ffffff">
   <g id="svg_79">
    <g id="svg_80">
     <path id="svg_81" d="m142.10799,87.3526l0,-11.67187l23.34375,0l0,11.67187l-23.34375,0zm-23.34375,70.03125l0,-11.67187l23.34375,0l0,-35.01563l-11.67188,0l0,-11.67187l35.01563,0l0,46.6875l23.34375,0l0,11.67187l-70.03125,0zm0,0"/>
    </g>
   </g>
  </g>
  <g id="svg_82" fill="#ffffff">
   <g id="svg_83">
    <g id="svg_84">
     <path id="svg_85" d="m212.129,157.38385l0,-11.67187l-11.67188,0l0,-35.01563l11.67188,0l0,-11.67187l70.03125,0l0,11.67187l-58.35938,0l0,35.01563l58.35938,0l0,11.67187l-70.03125,0zm0,0"/>
    </g>
   </g>
  </g>
  <g id="svg_86" fill="#ffffff">
   <g id="svg_87">
    <g id="svg_88">
     <path id="svg_89" d="m293.82187,157.38385l0,-81.70312l23.34375,0l0,23.34375l46.6875,0l0,11.67187l11.67188,0l0,46.6875l-23.34375,0l0,-46.6875l-35.01563,0l0,46.6875l-23.34375,0zm0,0"/>
    </g>
   </g>
  </g>
  <g id="svg_90" fill="#ffde59">
   <g id="svg_91">
    <g id="svg_92">
     <path id="svg_93" d="m387.18728,157.38385l0,-58.35937l11.67188,0l0,-11.67188l11.67187,0l0,-11.67187l35.01563,0l0,11.67187l11.67187,0l0,11.67188l11.67188,0l0,58.35937l-23.34375,0l0,-23.34375l-35.01563,0l0,23.34375l-23.34375,0zm23.34375,-35.01562l35.01563,0l0,-23.34375l-11.67188,0l0,-11.67188l-11.67187,0l0,11.67188l-11.67188,0l0,23.34375zm0,0"/>
    </g>
   </g>
  </g>
  <g id="svg_94" fill="#ffde59">
   <g id="svg_95">
    <g id="svg_96">
     <path id="svg_97" d="m492.22391,157.38385l0,-11.67187l-11.67188,0l0,-46.6875l23.34375,0l0,46.6875l35.01563,0l0,-46.6875l23.34375,0l0,58.35937l-70.03125,0zm0,0"/>
    </g>
   </g>
  </g>
  <g id="svg_98" fill="#ffde59">
   <g id="svg_99">
    <g id="svg_100">
     <path id="svg_101" d="m608.9324,157.38385l0,-46.6875l-23.34375,0l0,-11.67187l23.34375,0l0,-23.34375l23.34375,0l0,23.34375l23.34375,0l0,11.67187l-23.34375,0l0,46.6875l-23.34375,0zm0,0"/>
    </g>
   </g>
  </g>
  <g id="svg_102" fill="#ffde59">
   <g id="svg_103">
    <g id="svg_104">
     <path id="svg_105" d="m678.9534,157.38385l0,-11.67187l-11.67188,0l0,-35.01563l11.67188,0l0,-11.67187l58.35937,0l0,11.67187l11.67188,0l0,35.01563l-11.67188,0l0,11.67187l-58.35937,0zm11.67187,-11.67187l35.01563,0l0,-35.01563l-35.01563,0l0,35.01563zm0,0"/>
    </g>
   </g>
  </g>
  <g id="svg_106" fill="#ffde59">
   <g id="svg_107">
    <g id="svg_108">
     <path id="svg_109" d="m760.64627,157.38385l0,-58.35937l70.03125,0l0,11.67187l11.67188,0l0,46.6875l-23.34375,0l0,-46.6875l-11.67188,0l0,46.6875l-23.34375,0l0,-46.6875l-11.67187,0l0,46.6875l-11.67188,0zm0,0"/>
    </g>
   </g>
  </g>
  <g id="svg_110" fill="#ffde59">
   <g id="svg_111">
    <g id="svg_112">
     <path id="svg_113" d="m912.37039,87.3526l-11.67188,0l0,-11.67187l11.67188,0l0,11.67187zm23.34375,23.34375l0,46.6875l-70.03125,0l0,-11.67187l-11.67188,0l0,-11.67188l11.67188,0l0,-11.67187l46.6875,0l0,-11.67188l-46.6875,0l0,-11.67187l23.34375,0l0,-11.67188l11.67187,0l0,11.67188l23.34375,0l0,11.67187l11.67188,0zm-23.34375,23.34375l-35.01563,0l0,11.67188l35.01563,0l0,-11.67188zm0,0"/>
    </g>
   </g>
  </g>
  <g id="svg_114" fill="#ffde59">
   <g id="svg_115">
    <g id="svg_116">
     <path id="svg_117" d="m982.39139,157.38385l0,-46.6875l-23.34375,0l0,-11.67187l23.34375,0l0,-23.34375l23.34375,0l0,23.34375l23.34375,0l0,11.67187l-23.34375,0l0,46.6875l-23.34375,0zm0,0"/>
    </g>
   </g>
  </g>
  <g id="svg_118" fill="#ffde59">
   <g id="svg_119">
    <g id="svg_120">
     <path id="svg_121" d="m1075.75614,87.3526l0,-11.67187l23.34375,0l0,11.67187l-23.34375,0zm-23.34375,70.03125l0,-11.67187l23.34375,0l0,-35.01563l-11.67188,0l0,-11.67187l35.01563,0l0,46.6875l23.34375,0l0,11.67187l-70.03125,0zm0,0"/>
    </g>
   </g>
  </g>
  <g id="svg_122" fill="#ffde59">
   <g id="svg_123">
    <g id="svg_124">
     <path id="svg_125" d="m1145.77713,157.38385l0,-11.67187l-11.67188,0l0,-35.01563l11.67188,0l0,-11.67187l70.03125,0l0,11.67187l-58.35938,0l0,35.01563l58.35938,0l0,11.67187l-70.03125,0zm0,0"/>
    </g>
   </g>
  </g>
  <g id="svg_126" fill="#ffde59">
   <g id="svg_127">
    <g id="svg_128">
     <path id="svg_129" d="m1239.14188,157.38385l0,-11.67187l-11.67188,0l0,-11.67188l11.67188,0l0,-11.67187l46.6875,0l0,-11.67188l-46.6875,0l0,-11.67187l58.35937,0l0,11.67187l11.67188,0l0,46.6875l-70.03125,0zm11.67187,-11.67187l35.01563,0l0,-11.67188l-35.01563,0l0,11.67188zm0,0"/>
    </g>
   </g>
  </g>
  <g id="svg_130" clip-path="url(#755b10494f)">
   <g id="svg_131" clip-path="url(#b5dbbd87d4)">
    <path id="svg_132" fill-rule="nonzero" d="m387.82608,12.57049l22.54297,0l0,21.53125l-22.54297,0l0,-21.53125zm0,0" fill="#ffde59"/>
   </g>
  </g>
  <g id="svg_133" clip-path="url(#4cf98c6dd1)">
   <g id="svg_134" clip-path="url(#fb44525b8b)">
    <path id="svg_135" fill-rule="nonzero" d="m393.77921,15.89471l17.3125,0l0,16.98438l-17.3125,0l0,-16.98438zm0,0" fill="#ffde59"/>
   </g>
  </g>
  <g id="svg_136" clip-path="url(#d30ee395da)">
   <g id="svg_137" clip-path="url(#7d8184bf96)">
    <path id="svg_138" fill-rule="nonzero" d="m441.25781,328.33203l17.6836,0l0,18.02735l-17.6836,0l0,-18.02735zm0,0" fill="#ffde59"/>
   </g>
  </g>
  <g transform="translate(-52.381 -315.238)" id="svg_139" clip-path="url(#59d31c237a)">
   <g id="svg_140" clip-path="url(#e91a6e39bf)">
    <path id="svg_141" fill-rule="nonzero" d="m440.55469,330.43359l17.3164,0l0,16.98047l-17.3164,0l0,-16.98047zm0,0" fill="#ffde59"/>
   </g>
  </g>
  <g transform="translate(-52.381 -315.238)" id="svg_142" clip-path="url(#0f18459045)">
   <g id="svg_143" clip-path="url(#9470f1f5a4)">
    <path id="svg_144" fill-rule="nonzero" d="m470.32031,323.08203l17.3125,0l0,16.98047l-17.3125,0l0,-16.98047zm0,0" fill="#ffde59"/>
   </g>
  </g>
  <g transform="translate(-52.381 -315.238)" id="svg_145" clip-path="url(#55bbf61bac)">
   <g id="svg_146" clip-path="url(#f350cd846b)">
    <path id="svg_147" fill-rule="nonzero" d="m467.86719,319.22656l24.16015,0l0,24.82422l-24.16015,0l0,-24.82422zm0,0" fill="#ffde59"/>
   </g>
  </g>
  <g transform="translate(-52.381 -315.238)" id="svg_148" clip-path="url(#8b1ebf10c0)">
   <g id="svg_149" clip-path="url(#b199939f65)">
    <path id="svg_150" fill-rule="nonzero" d="m495.35547,328.85938l22.76172,0l0,24.35937l-22.76172,0l0,-24.35937zm0,0" fill="#ffde59"/>
   </g>
  </g>
  <g transform="translate(-52.381 -315.238)" id="svg_151" clip-path="url(#617c29f8cb)">
   <g id="svg_152" clip-path="url(#3ca0436ec3)">
    <path id="svg_153" fill-rule="nonzero" d="m441.08203,329.73438l22.03906,0l0,21.53125l-22.03906,0l0,-21.53125zm0,0" fill="#ffde59"/>
    <path id="svg_154" fill-rule="nonzero" d="m441.08203,329.73438l22.03906,0l0,21.53125l-22.03906,0l0,-21.53125zm0,0" fill="#ffde59"/>
    <path id="svg_155" fill-rule="nonzero" d="m441.08203,329.73438l22.03906,0l0,21.53125l-22.03906,0l0,-21.53125zm0,0" fill="#ffde59"/>
   </g>
  </g>
  <g transform="translate(-52.381 -315.238)" id="svg_156" clip-path="url(#c55cd65142)">
   <g id="svg_157" clip-path="url(#3f1a4488cf)">
    <path id="svg_158" fill-rule="nonzero" d="m464.89063,350.21875l32.60937,0l0,26.08594l-32.60937,0l0,-26.08594zm0,0" fill="#ffde59"/>
   </g>
  </g>
  <g transform="translate(-52.381 -315.238)" id="svg_159" clip-path="url(#d12b5b36f8)">
   <g id="svg_160" clip-path="url(#3facc428f5)">
    <path id="svg_161" fill-rule="nonzero" d="m466.29297,355.46875l38.03125,0l0,23.46094l-38.03125,0l0,-23.46094zm0,0" fill="#ffde59"/>
   </g>
  </g>
  <g transform="translate(-52.381 -315.238)" id="svg_162" clip-path="url(#94c7e16b4d)">
   <g id="svg_163" clip-path="url(#6454f9048f)">
    <path id="svg_164" fill-rule="nonzero" d="m469.44531,341.63672l22.03907,0l0,21.53516l-22.03907,0l0,-21.53516zm0,0" fill="#ffde59"/>
   </g>
  </g>
  <g transform="translate(-52.381 -315.238)" id="svg_165" clip-path="url(#a774f95ff8)">
   <g id="svg_166" clip-path="url(#8134d32375)">
    <path id="svg_167" fill-rule="nonzero" d="m473.29688,346.53906l22.03906,0l0,21.53516l-22.03906,0l0,-21.53516zm0,0" fill="#ffde59"/>
    <path id="svg_168" fill-rule="nonzero" d="m473.29688,346.53906l22.03906,0l0,21.53516l-22.03906,0l0,-21.53516zm0,0" fill="#ffde59"/>
   </g>
  </g>
  <g transform="translate(-52.381 -315.238)" id="svg_169" clip-path="url(#8d8ca3a1ff)">
   <g id="svg_170" clip-path="url(#8b33047e1d)">
    <path id="svg_171" fill-rule="nonzero" d="m441.43359,329.73438l22.03907,0l0,21.53125l-22.03907,0l0,-21.53125zm0,0" fill="#ffde59"/>
   </g>
  </g>
  <g transform="translate(-52.381 -315.238)" id="svg_172" clip-path="url(#a2e74cb672)">
   <g id="svg_173" clip-path="url(#c527197c10)">
    <path id="svg_174" fill-rule="nonzero" d="m441.08203,329.03125l22.75781,0l0,22.9375l-22.75781,0l0,-22.9375zm0,0" fill="#ffde59"/>
   </g>
  </g>
  <g transform="translate(-52.381 -315.238)" id="svg_175" clip-path="url(#d4aee2bf19)">
   <g id="svg_176" clip-path="url(#f1f8cecc23)">
    <path id="svg_177" fill-rule="nonzero" d="m441.78125,330.43359l22.03906,0l0,21.53516l-22.03906,0l0,-21.53516zm0,0" fill="#ffde59"/>
   </g>
  </g>
  <g transform="translate(-52.381 -315.238)" id="svg_178" clip-path="url(#3aec257da1)">
   <g id="svg_179" clip-path="url(#7d3ccbe029)">
    <path id="svg_180" fill-rule="nonzero" d="m440.38281,328.33203l22.03907,0l0,21.53516l-22.03907,0l0,-21.53516zm0,0" fill="#ffde59"/>
   </g>
  </g>
  <g transform="translate(-52.381 -315.238)" id="svg_181" clip-path="url(#1d54c5ee14)">
   <g id="svg_182" clip-path="url(#ea3c96e237)">
    <path id="svg_183" fill-rule="nonzero" d="m439.33203,327.80859l22.9336,0l0,23.11329l-22.9336,0l0,-23.11329zm0,0" fill="#ffde59"/>
   </g>
  </g>
  <g transform="translate(-52.381 -315.238)" id="svg_184" clip-path="url(#a35a10bcd7)">
   <g id="svg_185" clip-path="url(#b91d91a398)">
    <path id="svg_186" fill-rule="nonzero" d="m439.33203,328.85938l22.9336,0l0,23.11328l-22.9336,0l0,-23.11328zm0,0" fill="#ffde59"/>
   </g>
  </g>
  <g transform="translate(-52.381 -315.238)" id="svg_187" clip-path="url(#1bae421e51)">
   <g id="svg_188" clip-path="url(#33ad7a1a77)">
    <path id="svg_189" fill-rule="nonzero" d="m469.44531,320.98047l22.03907,0l0,21.53125l-22.03907,0l0,-21.53125zm0,0" fill="#ffde59"/>
    <path id="svg_190" fill-rule="nonzero" d="m469.44531,320.98047l22.03907,0l0,21.53125l-22.03907,0l0,-21.53125zm0,0" fill="#ffde59"/>
    <path id="svg_191" fill-rule="nonzero" d="m469.44531,320.98047l22.03907,0l0,21.53125l-22.03907,0l0,-21.53125zm0,0" fill="#ffde59"/>
   </g>
  </g>
  <g transform="translate(-52.381 -315.238)" id="svg_192" clip-path="url(#86e8036118)">
   <g id="svg_193" clip-path="url(#88bbc66097)">
    <path id="svg_194" fill-rule="nonzero" d="m468.39453,321.32813l22.03906,0l0,21.53515l-22.03906,0l0,-21.53515zm0,0" fill="#ffde59"/>
    <path id="svg_195" fill-rule="nonzero" d="m468.39453,321.32813l22.03906,0l0,21.53515l-22.03906,0l0,-21.53515zm0,0" fill="#ffde59"/>
   </g>
  </g>
  <g transform="translate(-52.381 -315.238)" id="svg_196" clip-path="url(#0648096bd8)">
   <g id="svg_197" clip-path="url(#ba8004c14c)">
    <path id="svg_198" fill-rule="nonzero" d="m495.70703,330.08203l22.03906,0l0,21.53516l-22.03906,0l0,-21.53516zm0,0" fill="#ffde59"/>
   </g>
  </g>
  <g transform="translate(-52.381 -315.238)" id="svg_199" clip-path="url(#e75904a16d)">
   <g id="svg_200" clip-path="url(#50204ab62d)">
    <path id="svg_201" fill-rule="nonzero" d="m496.05469,329.73438l22.03906,0l0,21.53125l-22.03906,0l0,-21.53125zm0,0" fill="#ffde59"/>
   </g>
  </g>
  <g transform="translate(-52.381 -315.238)" id="svg_202" clip-path="url(#cbfca59db5)">
   <g id="svg_203" clip-path="url(#66c3223cac)">
    <path id="svg_204" fill-rule="nonzero" d="m496.75781,329.73438l22.03907,0l0,21.53125l-22.03907,0l0,-21.53125zm0,0" fill="#ffde59"/>
    <path id="svg_205" fill-rule="nonzero" d="m496.75781,329.73438l22.03907,0l0,21.53125l-22.03907,0l0,-21.53125zm0,0" fill="#ffde59"/>
   </g>
  </g>
  <g transform="translate(-52.381 -315.238)" id="svg_206" clip-path="url(#9473413caf)">
   <g id="svg_207" clip-path="url(#1a4e8b60e7)">
    <path id="svg_208" fill-rule="nonzero" d="m490.45313,344.4375l22.03906,0l0,21.53516l-22.03906,0l0,-21.53516zm0,0" fill="#ffde59"/>
   </g>
  </g>
  <g transform="translate(-52.381 -315.238)" id="svg_209" clip-path="url(#1745df404a)">
   <g id="svg_210" clip-path="url(#ed8815ff1f)">
    <path id="svg_211" fill-rule="nonzero" d="m462.08984,347.41406l47.84375,0l0,31.16407l-47.84375,0l0,-31.16407zm0,0" fill="#ffde59"/>
   </g>
  </g>
  <g transform="translate(-52.381 -315.238)" id="svg_212" clip-path="url(#f00dd8c0a1)">
   <g id="svg_213" clip-path="url(#22786bc30d)">
    <path id="svg_214" fill-rule="nonzero" d="m454.91406,353.36719l55.12891,0l0,29.58984l-55.12891,0l0,-29.58984zm0,0" fill="#ffde59"/>
   </g>
  </g>
  <g transform="translate(-52.381 -315.238)" id="svg_215" clip-path="url(#fd31a6ccb1)">
   <g id="svg_216" clip-path="url(#36758529a0)">
    <path id="svg_217" fill-rule="nonzero" d="m484.67578,359.67188l25.92188,0l0,23.28515l-25.92188,0l0,-23.28515zm0,0" fill="#ffde59"/>
   </g>
  </g>
  <g transform="translate(-52.381 -315.238)" id="svg_218" clip-path="url(#a9ae6478eb)">
   <g id="svg_219" clip-path="url(#989d1d05ae)">
    <path id="svg_220" fill-rule="nonzero" d="m447.03516,339.36328l50.74609,0l0,44.64453l-50.74609,0l0,-44.64453zm0,0" fill="#ffde59"/>
   </g>
  </g>
  <g transform="translate(-52.381 -315.238)" id="svg_221" clip-path="url(#a4649fa4f6)">
   <g id="svg_222" clip-path="url(#510512625d)">
    <path id="svg_223" fill-rule="nonzero" d="m448.26172,357.92188l29.25,0l0,25.38281l-29.25,0l0,-25.38281zm0,0" fill="#ffde59"/>
   </g>
  </g>
  <g transform="translate(-52.381 -315.238)" id="svg_224" clip-path="url(#ef02e808fd)">
   <g id="svg_225" clip-path="url(#2028abe095)">
    <path id="svg_226" fill-rule="nonzero" d="m459.98828,360.37109l27.14844,0l0,22.9336l-27.14844,0l0,-22.9336zm0,0" fill="#ffde59"/>
   </g>
  </g>
  <g transform="translate(-52.381 -315.238)" id="svg_227" clip-path="url(#555078dd2c)">
   <g id="svg_228" clip-path="url(#9e896e1b9e)">
    <path id="svg_229" fill-rule="nonzero" d="m469.79297,331.30859l23.28516,0l0,37.47657l-23.28516,0l0,-37.47657zm0,0" fill="#ffde59"/>
   </g>
  </g>
  <g transform="translate(-52.381 -315.238)" id="svg_230" clip-path="url(#d9ddac1d3b)">
   <g id="svg_231" clip-path="url(#7077f9d0b9)">
    <path id="svg_232" fill-rule="nonzero" d="m465.94141,334.63672l26.26172,0l0,34.67187l-26.26172,0l0,-34.67187zm0,0" fill="#ffde59"/>
   </g>
  </g>
  <g transform="translate(-52.381 -315.238)" id="svg_233" clip-path="url(#7a944fc14b)">
   <g id="svg_234" clip-path="url(#3e45fee1d3)">
    <path id="svg_235" fill-rule="nonzero" d="m461.56641,334.28516l29.23828,0l0,35.0625l-29.23828,0l0,-35.0625zm0,0" fill="#ffde59"/>
   </g>
  </g>
  <g transform="translate(-52.381 -315.238)" id="svg_236" clip-path="url(#1e4aae49df)">
   <g id="svg_237" clip-path="url(#223d32d709)">
    <path id="svg_238" fill-rule="nonzero" d="m486.95313,339.01172l27.30859,0l0,33.60547l-27.30859,0l0,-33.60547zm0,0" fill="#ffde59"/>
   </g>
  </g>
  <g transform="translate(-52.381 -315.238)" id="svg_239" clip-path="url(#519ba6ae59)">
   <g id="svg_240" clip-path="url(#55f0a5c565)">
    <path id="svg_241" fill-rule="nonzero" d="m446.33594,341.63672l22.03906,0l0,21.53516l-22.03906,0l0,-21.53516zm0,0" fill="#ffde59"/>
   </g>
  </g>
  <path transform="translate(-52.381 -315.238)" id="svg_242" fill-rule="nonzero" d="m516.375,340.25781c0,-0.33203 -0.01953,-0.65625 -0.05469,-0.98437c-0.03906,-0.32813 -0.09765,-0.64844 -0.17187,-0.96875c-0.07422,-0.32031 -0.17188,-0.63672 -0.28125,-0.94531c-0.11328,-0.3086 -0.2461,-0.60938 -0.39453,-0.90235c-0.14453,-0.29297 -0.3125,-0.57812 -0.49219,-0.85156c-0.17969,-0.27344 -0.37891,-0.53906 -0.58984,-0.78906c-0.21094,-0.25 -0.4375,-0.48828 -0.67579,-0.71485c-0.24218,-0.22265 -0.49218,-0.43359 -0.75781,-0.6289c-0.26562,-0.19532 -0.53906,-0.375 -0.82422,-0.53907c-0.28515,-0.16406 -0.58203,-0.30859 -0.88281,-0.4375c-0.30469,-0.1289 -0.61328,-0.23828 -0.92578,-0.33203c-0.31641,-0.09375 -0.63672,-0.16797 -0.96094,-0.22265c-0.32422,-0.05469 -0.64844,-0.08985 -0.98047,-0.10547c-0.32812,-0.01953 -0.65625,-0.01563 -0.98437,0.0039c-0.32813,0.02344 -0.65235,0.0625 -0.97656,0.1211c-0.32422,0.0625 -0.64063,0.14062 -0.95704,0.23828c-0.3125,0.09375 -0.62109,0.21094 -0.92187,0.34375c-0.30078,0.13281 -0.58984,0.28125 -0.875,0.44922c-0.28125,0.16797 -0.55469,0.35156 -0.81641,0.55078c-0.26172,0.19922 -0.51172,0.41016 -0.75,0.64062c-0.23437,0.22657 -0.45703,0.46875 -0.66406,0.72266c-0.21094,0.25391 -0.40234,0.51953 -0.58203,0.79688c-0.17578,0.27734 -0.33594,0.5625 -0.48047,0.85937c-0.14453,0.29297 -0.26953,0.59766 -0.37891,0.90625c-0.10937,0.3125 -0.19921,0.62891 -0.26953,0.94922c-0.07031,0.32031 -0.125,0.64453 -0.15625,0.97266c-0.03515,0.32421 -0.05078,0.65234 -0.04297,0.98046c0.00391,0.33204 0.02735,0.65625 0.07032,0.98438c0.04297,0.32422 0.10547,0.64844 0.1875,0.96484c0.07812,0.32032 0.17968,0.63282 0.29687,0.94141c0.11719,0.30469 0.25,0.60547 0.40235,0.89453c0.15625,0.29297 0.32421,0.57422 0.50781,0.84375l-8.0586,9.93359l-7.25,-16.66406c0.4375,-0.36719 0.83594,-0.77734 1.19141,-1.23047c0.35547,-0.44922 0.66016,-0.92968 0.91797,-1.4414c0.25391,-0.51563 0.45703,-1.04688 0.60547,-1.60157c0.14844,-0.55468 0.23828,-1.11718 0.26953,-1.6914c0.03516,-0.57031 0.00781,-1.14063 -0.07422,-1.71094c-0.08594,-0.56641 -0.22266,-1.11719 -0.42187,-1.65625c-0.19532,-0.53906 -0.44532,-1.05469 -0.7461,-1.54297c-0.30078,-0.48437 -0.64844,-0.9375 -1.04297,-1.35547c-0.39453,-0.41797 -0.82422,-0.78906 -1.29687,-1.11718c-0.46875,-0.33204 -0.96485,-0.60938 -1.49219,-0.83594c-0.52734,-0.22656 -1.07031,-0.39844 -1.63281,-0.51563c-0.5625,-0.11328 -1.12891,-0.17187 -1.70313,-0.17187c-0.57422,0 -1.14062,0.05859 -1.70312,0.17187c-0.5625,0.11719 -1.10547,0.28907 -1.63281,0.51563c-0.52735,0.22656 -1.02344,0.5039 -1.4961,0.83594c-0.46875,0.32812 -0.89844,0.69921 -1.29297,1.11718c-0.39453,0.41797 -0.74218,0.8711 -1.04297,1.35547c-0.30078,0.48828 -0.55078,1.00391 -0.74609,1.54297c-0.19922,0.53906 -0.33984,1.08984 -0.42187,1.65625c-0.08204,0.57031 -0.10938,1.14063 -0.07813,1.71094c0.03516,0.57422 0.125,1.13672 0.27344,1.6914c0.14844,0.55469 0.34765,1.08594 0.60547,1.60157c0.25781,0.51172 0.5625,0.99218 0.91797,1.4414c0.35546,0.45313 0.7539,0.86328 1.1914,1.23047l-7.23047,16.65235l-8.0625,-9.92969c0.34375,-0.50391 0.62891,-1.03906 0.85547,-1.60156c0.23047,-0.56641 0.39453,-1.14844 0.4961,-1.75c0.09765,-0.60157 0.13671,-1.20704 0.10546,-1.81641c-0.03125,-0.60547 -0.125,-1.20313 -0.28515,-1.79297c-0.16016,-0.58984 -0.38281,-1.15234 -0.66406,-1.69141c-0.28125,-0.53906 -0.6211,-1.04296 -1.01172,-1.51171c-0.39063,-0.46485 -0.82813,-0.88672 -1.3086,-1.25782c-0.48437,-0.37109 -1,-0.6875 -1.55078,-0.94922c-0.55078,-0.25781 -1.125,-0.45703 -1.71875,-0.59375c-0.59375,-0.13281 -1.19531,-0.20312 -1.80469,-0.21093c-0.60937,-0.00391 -1.21484,0.05468 -1.80859,0.18359c-0.59766,0.125 -1.17187,0.3125 -1.72656,0.5625c-0.5586,0.25 -1.07813,0.55859 -1.56641,0.92188c-0.49219,0.36328 -0.93359,0.77734 -1.33203,1.23437c-0.40234,0.46094 -0.74609,0.96094 -1.03906,1.49609c-0.28906,0.53516 -0.51953,1.09375 -0.69141,1.67969c-0.16797,0.58594 -0.27344,1.17969 -0.3164,1.78906c-0.03907,0.60938 -0.01563,1.21485 0.07812,1.81641c0.08984,0.60156 0.24609,1.1875 0.46094,1.75781c0.21875,0.56641 0.49609,1.10547 0.83203,1.61719c0.33203,0.50781 0.71875,0.97656 1.15625,1.40234c0.4375,0.42579 0.91406,0.79688 1.42969,1.1211c0.51953,0.32031 1.0625,0.58203 1.63672,0.78515c0.57421,0.20313 1.16406,0.34375 1.76953,0.41797l4.35547,26.14844c0.09375,0.5625 0.28125,1.08984 0.5664,1.58594c0.28125,0.49609 0.63672,0.92578 1.07031,1.29687c0.4375,0.36719 0.92188,0.64844 1.45704,0.84766c0.53515,0.19531 1.08593,0.29297 1.65625,0.29297l39.25,0c0.57031,0 1.125,-0.09766 1.66015,-0.29297c0.53125,-0.19922 1.01953,-0.48047 1.45313,-0.84766c0.43359,-0.37109 0.79297,-0.80078 1.07422,-1.29687c0.28125,-0.4961 0.46875,-1.02344 0.5625,-1.58594l4.35546,-26.13281c0.50391,-0.06641 1,-0.17188 1.48438,-0.32422c0.48437,-0.15625 0.95312,-0.35156 1.40234,-0.58594c0.45313,-0.23828 0.87891,-0.51562 1.27735,-0.83203c0.39843,-0.3125 0.76953,-0.66016 1.10547,-1.04297c0.33593,-0.38281 0.63671,-0.78906 0.89843,-1.22656c0.26563,-0.4375 0.48438,-0.89063 0.66797,-1.36719c0.17969,-0.47656 0.31641,-0.96484 0.40625,-1.46875c0.08985,-0.5 0.13672,-1.0039 0.13672,-1.51172zm-36.10937,-12.03906c0.48046,0 0.9414,0.09375 1.38281,0.27734c0.4414,0.1836 0.83203,0.44141 1.17187,0.78125c0.33985,0.33985 0.59766,0.73047 0.78125,1.17188c0.1836,0.44141 0.27735,0.90234 0.27735,1.38281c0,0.47656 -0.09375,0.9375 -0.27735,1.37891c-0.18359,0.44531 -0.4414,0.83594 -0.78125,1.17187c-0.33984,0.33985 -0.73047,0.60157 -1.17187,0.78516c-0.44141,0.18359 -0.90235,0.27344 -1.38281,0.27344c-0.47657,0 -0.9375,-0.08985 -1.38282,-0.27344c-0.4414,-0.18359 -0.83203,-0.44531 -1.16797,-0.78516c-0.33984,-0.33593 -0.60156,-0.72656 -0.78515,-1.17187c-0.1836,-0.44141 -0.27344,-0.90235 -0.27344,-1.37891c0,-0.48047 0.08984,-0.9414 0.27344,-1.38281c0.18359,-0.44141 0.44531,-0.83203 0.78515,-1.17188c0.33594,-0.33984 0.72657,-0.59765 1.16797,-0.78125c0.44532,-0.18359 0.90625,-0.27734 1.38282,-0.27734zm-31.29297,12.03906c0,-0.48047 0.08984,-0.9414 0.27343,-1.38281c0.1836,-0.44141 0.44532,-0.83203 0.78125,-1.17187c0.33985,-0.33985 0.73047,-0.60157 1.17188,-0.78125c0.44531,-0.1836 0.90625,-0.27735 1.38281,-0.27735c0.48047,0 0.94141,0.09375 1.38281,0.27735c0.44141,0.17968 0.83204,0.4414 1.17188,0.78125c0.33594,0.33984 0.59766,0.73046 0.78125,1.17187c0.18359,0.44141 0.27734,0.90234 0.27734,1.38281c0,0.47657 -0.09375,0.9375 -0.27734,1.37891c-0.18359,0.44531 -0.44531,0.83594 -0.78125,1.17187c-0.33984,0.33985 -0.73047,0.60157 -1.17188,0.78516c-0.4414,0.18359 -0.90234,0.27344 -1.38281,0.27344c-0.47656,0 -0.9375,-0.08985 -1.38281,-0.27344c-0.44141,-0.18359 -0.83203,-0.44531 -1.17188,-0.78516c-0.33593,-0.33593 -0.59765,-0.72656 -0.78125,-1.17187c-0.18359,-0.44141 -0.27343,-0.90234 -0.27343,-1.37891zm50.91797,33.69922l-39.25,0l-4.1875,-25.11719l9.90625,12.17969c0.48046,0.59766 1.10546,0.89844 1.87109,0.90235c0.10937,0 0.21484,-0.00782 0.32422,-0.01954c0.41797,-0.05859 0.79297,-0.21484 1.1289,-0.46875c0.33594,-0.2539 0.58594,-0.57421 0.75391,-0.96093l8.81641,-20.28125c0.67578,0.08593 1.34765,0.08593 2.02343,0l8.81641,20.28125c0.16797,0.38672 0.41797,0.70703 0.75391,0.96093c0.33593,0.25391 0.71484,0.41016 1.1289,0.46875c0.10938,0.01172 0.21875,0.01954 0.32813,0.01954c0.76562,-0.00391 1.38672,-0.30469 1.86719,-0.90235l9.91015,-12.19531l-4.1914,25.13281zm8.05859,-30.08984c-0.47656,0 -0.9375,-0.08985 -1.37891,-0.27344c-0.44531,-0.18359 -0.83593,-0.44531 -1.17187,-0.78516c-0.33985,-0.33593 -0.60156,-0.72656 -0.78516,-1.17187c-0.18359,-0.44141 -0.27344,-0.90234 -0.27344,-1.37891c0,-0.48047 0.08985,-0.9414 0.27344,-1.38281c0.1836,-0.44141 0.44531,-0.83203 0.78516,-1.17187c0.33594,-0.33985 0.72656,-0.60157 1.17187,-0.78125c0.44141,-0.1836 0.90235,-0.27735 1.37891,-0.27735c0.48047,0 0.94141,0.09375 1.38281,0.27735c0.44141,0.17968 0.83203,0.4414 1.17188,0.78125c0.33984,0.33984 0.59765,0.73046 0.78125,1.17187c0.18359,0.44141 0.27734,0.90234 0.27734,1.38281c0,0.47657 -0.09375,0.9375 -0.27734,1.37891c-0.1836,0.44531 -0.44141,0.83594 -0.78125,1.17187c-0.33985,0.33985 -0.73047,0.60157 -1.17188,0.78516c-0.4414,0.18359 -0.90234,0.27344 -1.38281,0.27344zm0,0" fill="#000000"/>
 </g>
</svg>